<svg preserveAspectRatio="none" width="100%" height="100%" overflow="visible" style="display: block;" viewBox="0 0 33.3333 21.6667" fill="none" xmlns="http://www.w3.org/2000/svg">
<g id="Container">
<path id="Icon" d="M0 21.6667V18.3333H16.6667V21.6667H0V21.6667M0 13.3333V10H8.33333V13.3333H0V13.3333M0 5V1.66667H8.33333V5H0V5M31 21.6667L24.5833 15.25C23.9167 15.7222 23.1875 16.0764 22.3958 16.3125C21.6042 16.5486 20.8056 16.6667 20 16.6667C17.6944 16.6667 15.7292 15.8542 14.1042 14.2292C12.4792 12.6042 11.6667 10.6389 11.6667 8.33333C11.6667 6.02778 12.4792 4.0625 14.1042 2.4375C15.7292 0.8125 17.6944 0 20 0C22.3056 0 24.2708 0.8125 25.8958 2.4375C27.5208 4.0625 28.3333 6.02778 28.3333 8.33333C28.3333 9.13889 28.2153 9.9375 27.9792 10.7292C27.7431 11.5208 27.3889 12.25 26.9167 12.9167L33.3333 19.3333L31 21.6667V21.6667M20 13.3333C21.3889 13.3333 22.5694 12.8472 23.5417 11.875C24.5139 10.9028 25 9.72222 25 8.33333C25 6.94444 24.5139 5.76389 23.5417 4.79167C22.5694 3.81944 21.3889 3.33333 20 3.33333C18.6111 3.33333 17.4306 3.81944 16.4583 4.79167C15.4861 5.76389 15 6.94444 15 8.33333C15 9.72222 15.4861 10.9028 16.4583 11.875C17.4306 12.8472 18.6111 13.3333 20 13.3333V13.3333" fill="#4648D4"/>
</g>
</svg>
